<?xml version="1.0" standalone="no"?><!DOCTYPE svg PUBLIC "-//W3C//DTD SVG 1.1//EN" "http://www.w3.org/Graphics/SVG/1.1/DTD/svg11.dtd"><svg t="1623121570041" class="icon" viewBox="0 0 1024 1024" version="1.1" xmlns="http://www.w3.org/2000/svg" p-id="8536" xmlns:xlink="http://www.w3.org/1999/xlink" width="200" height="200"><defs><style type="text/css"></style></defs><path d="M752.941176 632.470588c16.564706 0 30.117647-13.552941 30.117648-30.117647v-180.705882c0-16.564706-13.552941-30.117647-30.117648-30.117647H271.058824c-16.564706 0-30.117647 13.552941-30.117648 30.117647v180.705882c0 16.564706 13.552941 30.117647 30.117648 30.117647h90.352941v60.235294H271.058824c-16.564706 0-30.117647 13.552941-30.117648 30.117647v180.705883c0 16.564706 13.552941 30.117647 30.117648 30.117647h481.882352c16.564706 0 30.117647-13.552941 30.117648-30.117647v-180.705883c0-16.564706-13.552941-30.117647-30.117648-30.117647h-90.352941v-60.235294h90.352941z m-451.764705-180.705882h421.647058v120.470588H301.176471v-120.470588z m421.647058 421.647059H301.176471v-120.470589h421.647058v120.470589z m-120.470588-180.705883h-180.705882v-60.235294h180.705882v60.235294z" fill="#1296db" p-id="8537"></path><path d="M391.529412 481.882353c-16.564706 0-30.117647 13.552941-30.117647 30.117647s13.552941 30.117647 30.117647 30.117647 30.117647-13.552941 30.117647-30.117647-13.552941-30.117647-30.117647-30.117647zM391.529412 783.058824c-16.564706 0-30.117647 13.552941-30.117647 30.117647s13.552941 30.117647 30.117647 30.117647 30.117647-13.552941 30.117647-30.117647-13.552941-30.117647-30.117647-30.117647zM512 481.882353c-16.564706 0-30.117647 13.552941-30.117647 30.117647s13.552941 30.117647 30.117647 30.117647 30.117647-13.552941 30.117647-30.117647-13.552941-30.117647-30.117647-30.117647zM632.470588 481.882353c-16.564706 0-30.117647 13.552941-30.117647 30.117647s13.552941 30.117647 30.117647 30.117647 30.117647-13.552941 30.117647-30.117647-13.552941-30.117647-30.117647-30.117647z" fill="#1296db" p-id="8538"></path><path d="M662.588235 843.294118h-90.352941c-16.564706 0-30.117647-13.552941-30.117647-30.117647s13.552941-30.117647 30.117647-30.117647h90.352941c16.564706 0 30.117647 13.552941 30.117647 30.117647s-13.552941 30.117647-30.117647 30.117647z" fill="#1296db" p-id="8539"></path><path d="M191.548235 632.470588c-6.324706 0-12.649412-2.108235-18.070588-6.023529-60.837647-46.08-91.256471-115.049412-81.317647-184.922353 14.757647-104.508235 120.470588-183.416471 245.157647-183.416471h9.637647C369.844706 160.828235 467.727059 90.352941 581.872941 90.352941c153.901176 0 223.472941 102.098824 237.628235 198.776471 71.68 39.152941 114.145882 105.712941 114.145883 178.597647 0 59.632941-29.214118 116.555294-80.414118 156.611765a30.057412 30.057412 0 0 1-37.044706-47.284706c36.442353-28.310588 57.223529-68.065882 57.22353-109.025883 0-50.597647-31.021176-97.581176-82.82353-125.590588-16.865882-9.035294-28.009412-24.395294-30.418823-41.863529-6.023529-45.176471-35.237647-149.985882-178.296471-149.985883-87.04 0-161.430588 51.802353-176.489412 123.482353-5.421176 25.6-30.117647 44.272941-58.729411 44.272941h-9.035294c-93.665882 0-175.284706 57.825882-185.524706 131.614118-6.927059 48.489412 14.155294 95.472941 57.825882 128.602353 13.251765 9.938824 15.962353 28.912941 5.722353 42.164706-6.023529 7.529412-15.058824 11.745882-24.094118 11.745882z" fill="#1296db" p-id="8540"></path><path d="M481.882353 361.411765c-5.12 0-10.24-1.204706-15.058824-3.915294a30.057412 30.057412 0 0 1-10.842353-41.261177 142.396235 142.396235 0 0 1 123.181177-71.077647c49.392941 0 94.569412 24.997647 120.771765 67.162353a30.208 30.208 0 0 1-51.2 31.924706c-15.058824-24.395294-41.261176-38.851765-69.872942-38.851765-29.214118 0-56.621176 15.661176-71.077647 40.96a29.816471 29.816471 0 0 1-25.901176 15.058824z" fill="#1296db" p-id="8541"></path></svg>