<?xml version="1.0" standalone="no"?><!DOCTYPE svg PUBLIC "-//W3C//DTD SVG 1.1//EN" "http://www.w3.org/Graphics/SVG/1.1/DTD/svg11.dtd"><svg t="1623121604723" class="icon" viewBox="0 0 1024 1024" version="1.1" xmlns="http://www.w3.org/2000/svg" p-id="9511" xmlns:xlink="http://www.w3.org/1999/xlink" width="200" height="200"><defs><style type="text/css"></style></defs><path d="M450.00371094 549.07226563a867.84082031 867.84082031 0 0 0 148.30664062-67.93154297c91.37636719-52.75634766 173.14365234-122.15566406 240.36503906-205.34765625a423.4359375 423.4359375 0 0 0-29.04609375-36.8569336c-63.96152345 81.31728516-143.2265625 150.1171875-234.17138672 202.62392578-42.17431641 24.35009766-86.12841797 44.77236327-131.35429687 61.14375C448.75390625 512.43945313 451.35546875 523.34228516 451.35546875 534.8515625c0 4.86298828-0.46494141 9.61699219-1.35175781 14.22070313z m-130.19941407 34.2571289a857.30097655 857.30097655 0 0 1-241.734375 9.08525391 419.07744141 419.07744141 0 0 1-5.67158203-46.62773438c77.12050781 9.02988281 154.378125 6.94775391 229.72060547-5.74189453 1.13115234 16.4671875 7.59814453 31.46748047 17.68535156 43.284375z" p-id="9512" fill="#1296db"></path><path d="M792.85449219 571.90537109c-190.378125-54.47460938-342.18457031-179.44716797-434.5866211-338.83242187a81.66005859 81.66005859 0 0 0 34.43291016-31.88232422c87.92841797 156.98759766 236.68857422 279.70927734 424.22080078 329.95898438 2.00039063 0.53613281 4.00166016 1.06347657 6.00292969 1.58027343-13.91835937 9.29003906-24.61816406 23.02470703-30.07001953 39.17548828zM307.21923828 239.84492188c28.153125 70.43554688 44.88222656 145.80439453 48.54375 223.25800781A74.73867187 74.73867187 0 0 1 376.6484375 460.14453125a74.6015625 74.6015625 0 0 1 24.93457031 4.26269531c-3.37675781-79.42675781-19.6453125-156.83642578-47.25-229.53779297-9.75146484 4.13789063-20.47675781 6.42744141-31.73730468 6.42744141-5.25673828 0-10.39746094-0.49921875-15.37646485-1.45195313z m-16.11914062 549.54492187c16.95410156-36.27685547 30.97792969-74.53300781 41.70234375-114.55488281a699.22265625 699.22265625 0 0 0 15.13476562-70.99277344C356.77636719 607.52480469 366.47509766 609.55859375 376.6484375 609.55859375c5.83417969 0 11.51191406-0.66796875 16.96113281-1.93359375a745.16748047 745.16748047 0 0 1-16.66142578 79.03828125c-10.41503906 38.87226562-23.7515625 76.18095703-39.70898437 111.7546875C326.26074219 792.32539063 313.62734375 788.85546875 300.18359375 788.85546875c-3.07353516 0-6.10488281 0.18105469-9.084375 0.534375z m497.81601562-196.08662109c-168.23496094 17.40849609-324.92988281 92.58046875-443.64726562 210.25195312 12.60087891 9.21357422 22.27675781 22.18974609 27.37353515 37.27529297C486.32451172 725.89501953 638.22060547 653.07324219 801.19091797 638.03515625 793.38886719 626.05039063 788.85546875 611.74179687 788.85546875 596.375c0-1.02832031 0.02021484-2.05224609 0.06064453-3.07177734z m134.31884766-46.85888672A437.06074219 437.06074219 0 0 0 924.20703125 517.2734375c0-237.84960938-192.81445313-430.6640625-430.6640625-430.6640625-39.49804688 0-77.75507812 5.31738281-114.09345703 15.27539063 12.88300781 12.60615234 21.59208985 29.4609375 23.85878906 48.29853515C432.2234375 143.09931641 462.44462891 139.34374999 493.54296875 139.34374999c208.72441406 0 377.9296875 169.20527344 377.9296875 377.92968751 0 0.96064453-0.00351562 1.92041017-0.01054687 2.88017578 20.6578125 1.64179687 39.00322266 11.49345703 51.77285156 26.29160156z m-25.22197266 119.07421875C837.58818359 830.3328125 679.29980469 947.9375 493.54296875 947.9375c-50.36308594 0-98.70644531-8.64492187-143.62822266-24.53203125 13.68720703-11.72988281 23.18027344-28.21289063 25.92070313-46.89228516C412.87871094 888.64296875 452.44443359 895.203125 493.54296875 895.203125c154.93798828 0 288.09931641-93.234375 346.44023436-226.66113281 7.92949219 2.784375 16.45664063 4.29785156 25.33710939 4.29785156 11.69648438 0 22.78037109-2.62617187 32.69267578-7.32128906zM241.67480469 167.89941406C133.3671875 246.11943359 62.87890625 373.46503906 62.87890625 517.2734375c0 136.10566406 63.13798828 257.46503906 161.72314453 336.38642579 2.85205078-18.63984375 12.43476563-35.06484375 26.19052734-46.7138672C168.15253906 737.61699219 115.61328125 633.58085938 115.61328125 517.2734375c0-122.55556641 58.33564453-231.48632813 148.75400391-300.54023439-12.55166016-12.87949219-20.86523438-29.90742188-22.69160157-48.83291014z" p-id="9513" fill="#1296db"></path><path d="M376.6484375 609.55859375c41.259375 0 74.70703125-33.44765625 74.70703125-74.70703125s-33.44765625-74.70703125-74.70703125-74.70703125-74.70703125 33.44765625-74.70703125 74.70703125 33.44765625 74.70703125 74.70703125 74.70703125z m0 45.703125c-66.50068359 0-120.41015625-53.90947266-120.41015625-120.41015625s53.90947266-120.41015625 120.41015625-120.41015625 120.41015625 53.90947266 120.41015625 120.41015625-53.90947266 120.41015625-120.41015625 120.41015625z m-76.46484375 306.73828125c-53.39443359 0-96.6796875-43.28525391-96.6796875-96.6796875s43.28525391-96.6796875 96.6796875-96.6796875 96.6796875 43.28525391 96.6796875 96.6796875-43.28525391 96.6796875-96.6796875 96.6796875z m565.13671875-314.6484375c28.15400391 0 50.9765625-22.82255859 50.9765625-50.9765625s-22.82255859-50.9765625-50.9765625-50.9765625-50.9765625 22.82255859-50.97656249 50.9765625 22.82255859 50.9765625 50.97656249 50.9765625z m0 45.703125c-53.39443359 0-96.6796875-43.28525391-96.6796875-96.6796875s43.28525391-96.6796875 96.6796875-96.6796875 96.6796875 43.28525391 96.6796875 96.6796875-43.28525391 96.6796875-96.6796875 96.6796875zM322.15624999 256.23828125c-53.39443359 0-96.6796875-43.28525391-96.67968749-96.6796875S268.76181641 62.87890625 322.15624999 62.87890625s96.6796875 43.28525391 96.67968751 96.6796875-43.28525391 96.6796875-96.67968751 96.6796875z" p-id="9514" fill="#1296db"></path></svg>