<?xml version="1.0" standalone="no"?><!DOCTYPE svg PUBLIC "-//W3C//DTD SVG 1.1//EN" "http://www.w3.org/Graphics/SVG/1.1/DTD/svg11.dtd"><svg t="1623121527796" class="icon" viewBox="0 0 1024 1024" version="1.1" xmlns="http://www.w3.org/2000/svg" p-id="7424" xmlns:xlink="http://www.w3.org/1999/xlink" width="200" height="200"><defs><style type="text/css"></style></defs><path d="M525.62 725.55H347.99c-17.97 0-32.55 14.57-32.55 32.55s14.57 32.55 32.55 32.55h177.63c17.98 0 32.55-14.57 32.55-32.55s-14.58-32.55-32.55-32.55z" fill="#1296db" p-id="7425"></path><path d="M176.93 758.09m-32.55 0a32.55 32.55 0 1 0 65.1 0 32.55 32.55 0 1 0-65.1 0Z" fill="#1296db" p-id="7426"></path><path d="M257.4 758.09m-32.55 0a32.55 32.55 0 1 0 65.1 0 32.55 32.55 0 1 0-65.1 0Z" fill="#1296db" p-id="7427"></path><path d="M954.76 685.1l0.35-0.09-73.25-285.82c-6.48-25.29-28.65-42.95-53.88-42.95h-63.31L796 181.21c3.17-17.69-8.61-34.61-26.3-37.77-17.69-3.17-34.61 8.61-37.77 26.3l-33.39 186.5H541.62V173.82c0-17.97-14.57-32.55-32.55-32.55-17.98 0-32.55 14.57-32.55 32.55v182.42H319.6l-33.39-186.5c-3.17-17.69-20.08-29.47-37.77-26.3-17.69 3.17-29.47 20.08-26.3 37.77l31.33 175.03h-58.41c-25.4 0-47.58 17.8-53.96 43.3L70.72 680.97c-2.15 6.66-3.62 13.62-3.62 20.98v112.28c0 37.91 30.84 68.75 68.75 68.75h752.5c37.91 0 68.75-30.84 68.75-68.75V701.95c0-5.84-0.96-11.43-2.34-16.85zM202.75 421.34h617.59l54.29 211.87H149.76l52.99-211.87zM892 814.23c0 2.01-1.64 3.66-3.66 3.66h-752.5c-2.01 0-3.66-1.64-3.66-3.66V701.95c0-0.39 0.3-0.66 0.42-1.01l0.19 0.05 0.32-1.3c0.67-0.81 1.59-1.4 2.72-1.4h752.5c2.01 0 3.66 1.64 3.66 3.66v112.28z" fill="#1296db" p-id="7428"></path></svg>